<svg xmlns="http://www.w3.org/2000/svg" fill="none" viewBox="0 0 123 123"><path fill="#AE2538" d="M108.346 50.69l-14.414-7.208V7.447h14.414V50.69z"/><path fill="#ECECF1" d="M108.346 50.69v68.706H14.654V50.69L61.5 7.207l46.846 43.483z"/><path fill="#D3D3D8" d="M108.346 50.69v68.706H61.5V7.207l46.846 43.483z"/><path fill="#9CDD05" d="M0 115.793h123V123H0v-7.207z"/><path fill="#FF637B" d="M123 56.31l-12.132 8.793L61.5 19.194l-49.368 45.91L0 56.31 61.5 0 123 56.31z"/><path fill="#E63950" d="M110.868 65.103L61.5 19.194V0L123 56.31l-12.132 8.793z"/><path fill="#6B0" d="M61.5 115.793H123V123H61.5v-7.207z"/><path fill="#804C09" d="M65.103 57.656a3.604 3.604 0 1 1-7.206 0V45.645a3.604 3.604 0 0 1 7.206 0v12.011z"/><path fill="#64C37D" d="M74.002 54.08c-2.72-4.18-7.155-7.234-12.502-7.234s-9.781 3.053-12.502 7.234c-2.873 4.417-10.32 19.112-10.32 32.404 0 12.605 10.218 22.823 22.822 22.823s22.822-10.218 22.822-22.823c0-13.292-7.447-27.987-10.32-32.404z"/><path fill="#91DC5A" d="M61.5 46.846c-5.347 0-9.781 3.053-12.502 7.234-2.873 4.417-10.32 19.112-10.32 32.404 0 12.605 10.218 22.823 22.822 22.823V46.846z"/><path fill="#804C09" d="M61.5 99.697c7.297 0 13.213-5.915 13.213-13.213 0-7.297-5.916-13.212-13.213-13.212-7.297 0-13.213 5.915-13.213 13.212 0 7.298 5.916 13.213 13.213 13.213z"/><path fill="#BD720D" d="M61.5 99.697c-7.297 0-13.213-5.915-13.213-13.213 0-7.297 5.916-13.212 13.213-13.212"/></svg>